<?xml version="1.0" standalone="no"?>
<!DOCTYPE svg PUBLIC "-//W3C//DTD SVG 20010904//EN"
 "http://www.w3.org/TR/2001/REC-SVG-20010904/DTD/svg10.dtd">
<svg version="1.0" xmlns="http://www.w3.org/2000/svg"
                      width="50px" height="50px" viewBox="0 0 518.000000 450.000000"
                      preserveAspectRatio="xMidYMid meet">
                      <g transform="translate(0.000000,450.000000) scale(0.100000,-0.100000)"
                        fill="#3D30A2" stroke="none">
                        <path d="M2695 4109 c-27 -6 -167 -32 -310 -59 -252 -48 -704 -133 -1105 -207
                        -107 -20 -198 -39 -202 -43 -8 -6 18 -205 112 -865 157 -1110 162 -1137 229
                        -1281 74 -158 181 -290 396 -487 263 -242 484 -411 760 -579 163 -99 205 -120
                        228 -114 27 7 247 138 377 226 214 144 419 309 633 511 215 204 318 346 386
                        536 33 91 79 378 216 1363 41 300 80 576 86 613 6 38 7 72 3 77 -5 4 -36 12
                        -69 18 -78 14 -452 84 -895 167 -195 37 -436 82 -535 101 -188 35 -227 38
                        -310 23z m237 -434 c97 -20 237 -91 315 -160 159 -142 232 -325 233 -583 0
                        -81 3 -114 13 -116 6 -3 25 -7 42 -11 41 -9 110 -82 124 -130 15 -55 15 -1055
                        0 -1110 -15 -52 -82 -119 -134 -134 -54 -15 -1424 -15 -1477 -1 -48 14 -94 53
                        -118 101 -19 37 -20 62 -20 589 0 530 1 552 20 590 25 49 74 87 126 98 l39 8
                        6 164 c5 130 11 179 27 230 112 337 455 536 804 465z"/>
                        <path d="M2643 3429 c-125 -39 -249 -165 -289 -292 -10 -31 -18 -105 -21 -184
                        l-6 -133 457 0 456 0 0 116 c0 181 -31 273 -129 377 -115 123 -301 169 -468
                        116z"/>
                        <path d="M2725 2426 c-99 -43 -124 -173 -50 -252 l35 -37 -31 -139 c-24 -109
                        -28 -142 -18 -154 9 -11 39 -14 130 -14 103 0 120 2 128 18 6 12 0 54 -20 137
                        -16 66 -29 128 -29 139 0 10 13 33 29 52 73 83 53 197 -43 244 -49 23 -88 25
                        -131 6z"/>
                      </g>
                    </svg>